<mxfile host="65bd71144e">
    <diagram id="E__Ag1xQ4PSYR4ZEaGZp" name="Page-1">
        <mxGraphModel dx="898" dy="680" grid="1" gridSize="10" guides="1" tooltips="1" connect="1" arrows="1" fold="1" page="1" pageScale="1" pageWidth="827" pageHeight="1169" math="0" shadow="0">
            <root>
                <mxCell id="0"/>
                <mxCell id="1" parent="0"/>
                <mxCell id="3" value="" style="endArrow=classic;html=1;" edge="1" parent="1">
                    <mxGeometry width="50" height="50" relative="1" as="geometry">
                        <mxPoint x="455" y="280" as="sourcePoint"/>
                        <mxPoint x="455" y="480" as="targetPoint"/>
                    </mxGeometry>
                </mxCell>
                <mxCell id="4" value="" style="endArrow=classic;html=1;" edge="1" parent="1">
                    <mxGeometry width="50" height="50" relative="1" as="geometry">
                        <mxPoint x="455" y="280" as="sourcePoint"/>
                        <mxPoint x="220" y="280" as="targetPoint"/>
                    </mxGeometry>
                </mxCell>
                <mxCell id="5" value="" style="endArrow=classic;html=1;" edge="1" parent="1">
                    <mxGeometry width="50" height="50" relative="1" as="geometry">
                        <mxPoint x="455" y="280" as="sourcePoint"/>
                        <mxPoint x="575" y="160" as="targetPoint"/>
                    </mxGeometry>
                </mxCell>
                <mxCell id="7" value="物理与环境安全" style="rounded=0;whiteSpace=wrap;html=1;" vertex="1" parent="1">
                    <mxGeometry x="465" y="300" width="20" height="130" as="geometry"/>
                </mxCell>
                <mxCell id="9" value="系统安全" style="rounded=0;whiteSpace=wrap;html=1;" vertex="1" parent="1">
                    <mxGeometry x="495" y="271" width="20" height="130" as="geometry"/>
                </mxCell>
                <mxCell id="12" value="通信网络安全" style="rounded=0;whiteSpace=wrap;html=1;" vertex="1" parent="1">
                    <mxGeometry x="525" y="250" width="20" height="130" as="geometry"/>
                </mxCell>
                <mxCell id="13" value="应用安全" style="rounded=0;whiteSpace=wrap;html=1;" vertex="1" parent="1">
                    <mxGeometry x="555" y="220" width="20" height="130" as="geometry"/>
                </mxCell>
                <mxCell id="14" value="数据安全与隐私保护" style="rounded=0;whiteSpace=wrap;html=1;" vertex="1" parent="1">
                    <mxGeometry x="585" y="192" width="20" height="130" as="geometry"/>
                </mxCell>
                <mxCell id="15" value="整车" style="rounded=0;whiteSpace=wrap;html=1;" vertex="1" parent="1">
                    <mxGeometry x="346" y="314" width="70" height="20" as="geometry"/>
                </mxCell>
                <mxCell id="16" value="IT视角" style="text;html=1;strokeColor=none;fillColor=none;align=center;verticalAlign=middle;whiteSpace=wrap;rounded=0;rotation=-45;" vertex="1" parent="1">
                    <mxGeometry x="545" y="180" width="40" height="20" as="geometry"/>
                </mxCell>
                <mxCell id="19" value="车辆行业视角" style="text;html=1;strokeColor=none;fillColor=none;align=center;verticalAlign=middle;whiteSpace=wrap;rounded=0;" vertex="1" parent="1">
                    <mxGeometry x="433" y="420" width="20" height="20" as="geometry"/>
                </mxCell>
                <mxCell id="20" value="零部件" style="rounded=0;whiteSpace=wrap;html=1;" vertex="1" parent="1">
                    <mxGeometry x="346" y="340" width="70" height="20" as="geometry"/>
                </mxCell>
                <mxCell id="21" value="TSP" style="rounded=0;whiteSpace=wrap;html=1;" vertex="1" parent="1">
                    <mxGeometry x="346" y="391" width="70" height="20" as="geometry"/>
                </mxCell>
                <mxCell id="22" value="无线网络" style="rounded=0;whiteSpace=wrap;html=1;" vertex="1" parent="1">
                    <mxGeometry x="346" y="365" width="70" height="20" as="geometry"/>
                </mxCell>
                <mxCell id="23" value="车联网应用" style="rounded=0;whiteSpace=wrap;html=1;" vertex="1" parent="1">
                    <mxGeometry x="346" y="416" width="70" height="20" as="geometry"/>
                </mxCell>
                <mxCell id="24" value="数据/隐私" style="rounded=0;whiteSpace=wrap;html=1;" vertex="1" parent="1">
                    <mxGeometry x="346" y="442" width="70" height="20" as="geometry"/>
                </mxCell>
                <mxCell id="25" value="合规认证视角" style="text;html=1;strokeColor=none;fillColor=none;align=center;verticalAlign=middle;whiteSpace=wrap;rounded=0;" vertex="1" parent="1">
                    <mxGeometry x="229" y="258" width="84" height="20" as="geometry"/>
                </mxCell>
                <mxCell id="26" value="资产" style="text;html=1;strokeColor=none;fillColor=none;align=center;verticalAlign=middle;whiteSpace=wrap;rounded=0;" vertex="1" parent="1">
                    <mxGeometry x="358" y="287" width="40" height="20" as="geometry"/>
                </mxCell>
                <mxCell id="27" value="参与者" style="text;html=1;strokeColor=none;fillColor=none;align=center;verticalAlign=middle;whiteSpace=wrap;rounded=0;" vertex="1" parent="1">
                    <mxGeometry x="266" y="287" width="40" height="20" as="geometry"/>
                </mxCell>
                <mxCell id="33" value="整车厂/OEM" style="rounded=1;whiteSpace=wrap;html=1;dashed=1;" vertex="1" parent="1">
                    <mxGeometry x="241" y="314" width="90" height="20" as="geometry"/>
                </mxCell>
                <mxCell id="34" value="Tier 1/ ODM" style="rounded=1;whiteSpace=wrap;html=1;dashed=1;" vertex="1" parent="1">
                    <mxGeometry x="241" y="340" width="90" height="20" as="geometry"/>
                </mxCell>
                <mxCell id="35" value="通信服务商" style="rounded=1;whiteSpace=wrap;html=1;dashed=1;" vertex="1" parent="1">
                    <mxGeometry x="241" y="365" width="90" height="20" as="geometry"/>
                </mxCell>
                <mxCell id="36" value="" style="endArrow=none;dashed=1;html=1;dashPattern=1 3;strokeWidth=2;" edge="1" parent="1">
                    <mxGeometry width="50" height="50" relative="1" as="geometry">
                        <mxPoint x="339" y="474" as="sourcePoint"/>
                        <mxPoint x="339" y="291" as="targetPoint"/>
                    </mxGeometry>
                </mxCell>
                <mxCell id="37" value="云服务商" style="rounded=1;whiteSpace=wrap;html=1;dashed=1;" vertex="1" parent="1">
                    <mxGeometry x="241" y="391" width="90" height="20" as="geometry"/>
                </mxCell>
                <mxCell id="38" value="监管机构" style="rounded=1;whiteSpace=wrap;html=1;dashed=1;" vertex="1" parent="1">
                    <mxGeometry x="241" y="416" width="90" height="20" as="geometry"/>
                </mxCell>
                <mxCell id="39" value="认证机构" style="rounded=1;whiteSpace=wrap;html=1;dashed=1;" vertex="1" parent="1">
                    <mxGeometry x="241" y="442" width="90" height="20" as="geometry"/>
                </mxCell>
                <mxCell id="41" value="法规体系审核和车型认证" style="rounded=0;whiteSpace=wrap;html=1;" vertex="1" parent="1">
                    <mxGeometry x="296" y="231" width="160" height="20" as="geometry"/>
                </mxCell>
                <mxCell id="42" value="全周期技术验证体系" style="rounded=0;whiteSpace=wrap;html=1;" vertex="1" parent="1">
                    <mxGeometry x="325" y="203" width="160" height="20" as="geometry"/>
                </mxCell>
                <mxCell id="43" value="CSMS体系规划建设运营" style="rounded=0;whiteSpace=wrap;html=1;" vertex="1" parent="1">
                    <mxGeometry x="360" y="175" width="160" height="20" as="geometry"/>
                </mxCell>
                <mxCell id="47" value="多维视角下的智能网联汽车安全" style="text;html=1;strokeColor=none;fillColor=none;align=center;verticalAlign=middle;whiteSpace=wrap;rounded=0;dashed=1;" vertex="1" parent="1">
                    <mxGeometry x="319" y="130" width="191" height="20" as="geometry"/>
                </mxCell>
            </root>
        </mxGraphModel>
    </diagram>
</mxfile>